REM MD5 606fdb24f57a9dd2bfbe9955ab1afb4b
FILE "Defcon 5 (Europe).bin" BINARY
  TRACK 01 MODE2/2352
    INDEX 01 00:00:00
  TRACK 02 AUDIO
    INDEX 00 35:09:25
    INDEX 01 35:11:25
  TRACK 03 AUDIO
    INDEX 00 46:55:52
    INDEX 01 46:57:52
REM LEADOUT 50:04:45
